<?xml version="1.0" encoding="UTF-8"?>
<svg width="1920px" height="405px" viewBox="0 0 1920 405" version="1.1" xmlns="http://www.w3.org/2000/svg" xmlns:xlink="http://www.w3.org/1999/xlink">
    <!-- Generator: Sketch 50.2 (55047) - http://www.bohemiancoding.com/sketch -->
    <title>IG Stories Copy 7</title>
    <desc>Created with Sketch.</desc>
    <defs></defs>
    <g id="IG-Stories-Copy-7" stroke="none" stroke-width="1" fill="none" fill-rule="evenodd">
        <g id="logo--white" fill="#141C3A" fill-rule="nonzero">
            <path d="M79.3010309,275.549194 C75.632282,265.137982 74,251.921598 74,234.301449 C74,216.6813 75.632282,203.464915 79.3010309,193.053703 C89.0843598,163.41866 114.760417,147 148.592703,147 C173.864576,147 193.431234,157.01411 206.87813,173.030575 C208.101046,174.232065 208.101046,176.635044 206.473946,177.836534 L184.461455,197.060366 C182.829173,198.261855 180.792707,198.261855 179.569791,196.255979 C171.009378,187.046256 162.448965,181.843196 148.592703,181.843196 C133.513525,181.843196 122.097914,189.052132 117.206249,203.464915 C114.760417,211.875342 113.946867,221.487258 113.946867,234.301449 C113.946867,247.11564 114.760417,257.129749 117.615615,265.540176 C122.50728,279.555856 133.917709,287.161896 149.002069,287.161896 C162.858331,287.161896 171.82811,281.958835 179.979157,272.744022 C181.202073,271.14543 183.238539,271.14543 184.870821,272.34692 L206.87813,291.56566 C208.510412,292.76715 208.101046,294.773026 207.287496,296.371618 C193.835418,311.990982 174.273942,322 149.002069,322 C115.169783,321.602898 89.0843598,305.581341 79.3010309,275.549194" id="Fill-1"></path>
            <path d="M827.310933,275.549194 C823.635333,265.137982 822,251.921598 822,234.301449 C822,216.6813 823.635333,203.464915 827.310933,193.053703 C837.112535,163.41866 862.836545,147 896.732025,147 C922.051102,147 942.059239,157.01411 955.126311,173.030575 C956.351516,174.232065 956.351516,176.635044 954.721378,177.836534 L932.667773,197.060366 C931.032439,198.261855 928.992173,198.261855 927.766968,196.255979 C919.190571,187.046256 910.614167,181.843196 896.732025,181.843196 C881.62468,181.843196 870.187751,189.052132 865.286947,203.464915 C862.431612,211.875342 861.611347,221.487258 861.611347,234.301449 C861.611347,247.11564 862.431612,257.129749 865.286947,265.540176 C870.187751,279.555856 881.62468,287.161896 896.732025,287.161896 C910.614167,287.161896 919.6007,281.958835 927.766968,272.744022 C928.992173,271.14543 931.032439,271.14543 932.667773,272.34692 L954.721378,291.56566 C956.351516,292.76715 955.946576,294.773026 955.126311,296.371618 C941.654306,311.990982 922.051102,322 896.732025,322 C862.836545,321.602898 837.112535,305.581341 827.310933,275.549194" id="Fill-3"></path>
            <path d="M1703.48469,318.595451 C1701.47959,318.595451 1699.87245,317.386924 1699.87245,314.96987 L1699.87245,218.297964 C1699.87245,196.54448 1689.03572,181.64273 1668.57142,181.64273 C1648.5051,181.64273 1636.86735,196.54448 1636.86735,218.297964 L1636.86735,314.96987 C1636.86735,316.982375 1635.66326,318.595451 1633.2551,318.595451 L1601.55102,318.595451 C1599.54082,318.595451 1597.93878,317.386924 1597.93878,314.96987 L1597.93878,218.297964 C1597.93878,196.54448 1587.10204,181.64273 1566.63265,181.64273 C1546.56633,181.64273 1534.92857,196.54448 1534.92857,218.297964 L1534.92857,314.96987 C1534.92857,316.982375 1533.72449,318.595451 1531.31633,318.595451 L1499.61224,318.595451 C1497.60715,318.595451 1496,317.386924 1496,314.96987 L1496,154.251161 C1496,152.238656 1497.20408,150.62558 1499.61224,150.62558 L1531.31633,150.62558 C1533.32653,150.62558 1534.92857,151.834107 1534.92857,154.251161 L1534.92857,166.33643 L1535.33163,166.33643 C1542.55613,155.864237 1557,147 1579.07653,147 C1598.7398,147 1614.39286,155.055138 1624.42347,169.152912 L1624.82653,169.152912 C1637.66837,155.055138 1654.12245,147 1677.80102,147 C1716.32653,147 1738,173.587591 1738,209.433726 L1738,315.37442 C1738,317.386924 1736.79591,319 1734.38776,319 L1703.48469,318.595451 Z" id="Fill-5"></path>
            <path d="M1785.6567,378.594073 C1783.60658,378.594073 1781.96334,377.381431 1781.96334,374.956147 L1781.96334,347.070519 C1781.96334,345.046024 1783.19446,343.432593 1785.6567,343.432593 L1791.81228,343.432593 C1805.35458,343.432593 1811.91706,337.369383 1817.25364,323.624394 L1822.17811,309.478617 L1760.21534,150.637926 C1759.39633,148.618569 1761.03435,147 1763.08968,147 L1797.96787,147 C1800.01799,147 1801.66122,148.212642 1802.06812,150.637926 L1840.23277,260.572147 L1841.05177,260.572147 L1877.57319,150.637926 C1878.39219,148.618569 1879.62331,147 1881.67343,147 L1914.91361,147 C1916.96373,147 1918.60696,148.212642 1917.78274,150.637926 L1853.76984,326.455605 C1839.00164,366.467653 1825.04724,379 1796.73676,379 L1785.6567,378.594073 Z" id="Fill-7"></path>
            <path d="M336.799605,265.405015 C339.681724,256.577198 340.502944,248.545415 340.502944,234.497449 C340.502944,220.449483 339.681724,212.825923 336.799605,203.589882 C331.861819,189.541916 320.751801,181.918356 305.117223,181.918356 C289.482645,181.918356 277.964632,189.945036 273.026846,203.589882 C270.144728,212.422803 269.323507,220.046363 269.323507,234.497449 C269.323507,248.545415 270.144728,256.577198 273.026846,265.405015 C277.964632,279.452982 289.07465,287.081645 305.117223,287.081645 C320.751801,287.479662 331.861819,279.452982 336.799605,265.405015 M234.764237,275.84021 C231.060898,264.200758 229,252.964427 229,234.497449 C229,216.035574 230.647672,205.197259 234.764237,193.154688 C244.226583,163.854498 270.144728,147 304.709228,147 C338.855272,147 364.778647,163.854498 374.240993,193.154688 C377.944333,204.794139 380,216.035574 380,234.497449 C380,252.964427 378.357558,263.797638 374.240993,275.84021 C364.778647,305.1404 338.855272,322 304.709228,322 C270.557954,322 244.634578,305.1404 234.764237,275.84021" id="Fill-9"></path>
            <path d="M1050.09072,147 C1022.37875,147 1004.0388,153.439051 990.594686,163.493994 C989.372025,164.700997 988.962745,166.312038 989.776126,167.917965 L1002.82132,190.85101 C1004.0388,192.456936 1006.08003,192.860975 1007.70679,191.653973 C1015.86133,185.220037 1027.2694,179.987989 1046.01345,179.987989 C1073.32131,179.987989 1082.69334,188.032966 1083.50672,206.138002 L1083.50672,206.54204 L1083.50672,207.749043 L1083.50672,262.059035 C1083.50672,281.365958 1070.05743,290.617939 1046.01345,290.617939 C1027.2694,290.617939 1017.08399,283.779963 1017.08399,269.699974 C1017.08399,254.008943 1028.08278,247.170968 1053.34943,247.170968 L1061.09469,247.170968 C1063.13073,247.170968 1064.76268,245.963965 1064.76268,243.549961 L1064.76268,221.424994 C1064.76268,219.415028 1063.54001,217.803987 1061.09469,217.803987 L1059.46274,217.803987 L1047.23611,217.803987 C1005.67075,217.803987 980,234.70202 980,270.906976 C980,305.904931 1005.67075,322 1036.64142,322 C1060.27612,322 1076.17074,313.955023 1083.91601,302.687962 L1084.3201,302.687962 L1084.3201,314.757986 C1084.3201,316.767952 1085.54277,318.378993 1087.9881,318.378993 L1117.33201,318.378993 C1119.36805,318.378993 1121,317.171991 1121,314.757986 L1121,205.733963 C1120.18143,164.700997 1101.43739,147 1050.09072,147" id="Fill-11"></path>
            <path d="M643.069421,217.642951 C642.2482,217.642951 641.421749,218.046071 641.421749,219.250328 L641.421749,220.051465 L641.421749,222.8631 L641.421749,241.324975 L641.421749,243.733489 L641.421749,245.335763 C641.421749,246.142003 641.834974,246.94314 643.069421,246.94314 L643.890641,246.94314 L730.296662,246.94314 C732.765556,246.94314 734,245.738883 734,243.330369 C734,216.438694 732.352332,204.799242 728.235763,193.15979 C718.773422,164.660738 693.26327,147 658.290773,147 C624.552724,147 598.221352,163.859601 588.759007,193.15979 C585.055667,203.998105 583,217.239831 583,234.502552 C583,251.76017 585.468893,264.603878 589.172232,275.442193 C598.634578,304.742382 624.144729,322 659.938446,322 C691.207599,322 715.070084,310.360549 729.883437,293.506051 C731.117881,291.898674 731.117881,289.893279 729.470213,288.689022 L708.897851,270.625164 C707.255404,269.420907 705.19974,269.420907 703.552066,271.426302 C694.910945,280.662342 682.979703,287.484765 663.641785,287.484765 C644.717093,287.484765 631.138181,278.651844 625.78717,262.195364 C624.96595,259.78685 624.144729,257.378335 623.731503,254.969821 C622.497056,247.744277 621.675836,240.921855 621.675836,230.88978 C622.083831,221.255723 622.497056,215.234437 623.731503,207.610876 L623.731503,207.207756 L623.731503,206.804636 C624.144729,204.799242 624.552724,203.191865 624.96595,201.58959 C629.490509,187.939641 642.2482,179.912961 658.290773,179.912961 C674.338578,179.912961 686.683041,187.939641 691.207599,201.58959 C692.44205,205.600379 693.26327,210.014288 693.26327,215.637557 C693.26327,216.841814 692.44205,217.642951 691.207599,217.642951 L645.125088,217.642951 L643.069421,217.642951 Z" id="Fill-13"></path>
            <path d="M544.052803,80 L512.88649,80 C510.915399,80 509.335516,81.2092185 509.335516,83.6276556 L509.335516,165.039833 L509.335516,232.346168 L509.335516,232.750948 L509.335516,233.155729 L509.335516,242.019917 C508.939292,251.693665 507.755634,258.139415 506.180767,263.785851 C501.837345,277.891693 491.18944,285.147004 475.801888,285.147004 C460.810561,285.147004 450.15764,277.486912 445.819233,263.785851 C443.451917,256.125758 442.268259,247.661228 442.268259,232.346168 C442.268259,217.031107 443.451917,208.566577 445.819233,200.911609 C450.15764,187.205424 460.414336,179.550455 475.014454,179.145675 L488.4259,179.145675 C489.213333,179.145675 489.609558,178.341237 489.609558,177.536799 L489.609558,145.692336 C489.609558,144.887898 489.213333,144.483117 488.4259,144.08346 L477.772979,144.08346 L465.148967,144.08346 C437.929853,144.483117 418.203894,157.784521 409.918289,184.38733 C405.971091,197.283953 404,208.971358 404,231.54173 C404,254.112102 405.579882,265.799507 409.918289,278.69613 C418.203894,305.698596 438.717286,319 466.332625,319 C488.4259,319 501.837345,310.53547 509.335516,299.252846 L509.731741,299.252846 L509.731741,311.744688 C509.731741,313.758345 510.915399,315.372344 513.282714,315.372344 L544.449027,315.372344 C546.420118,315.372344 548,314.163126 548,311.744688 L548,82.0136563 C547.603776,81.2092185 546.023894,80 544.052803,80" id="Fill-15"></path>
            <path d="M1380.06942,217.642951 C1379.2482,217.642951 1378.42175,218.046071 1378.42175,219.250328 L1378.42175,220.051465 L1378.42175,222.8631 L1378.42175,241.324975 L1378.42175,243.733489 L1378.42175,245.335763 C1378.42175,246.142003 1378.83498,246.94314 1380.06942,246.94314 L1380.89064,246.94314 L1467.29666,246.94314 C1469.76556,246.94314 1471,245.738883 1471,243.330369 C1471,216.438694 1469.35233,204.799242 1465.23576,193.15979 C1455.77342,164.660738 1430.26327,147 1395.29077,147 C1361.55272,147 1335.22135,163.859601 1325.75901,193.15979 C1322.05567,203.998105 1320,217.239831 1320,234.502552 C1320,251.76017 1322.46889,264.603878 1326.17223,275.442193 C1335.63458,304.742382 1361.14473,322 1396.93845,322 C1428.2076,322 1452.07008,310.360549 1466.88344,293.506051 C1468.11788,291.898674 1468.11788,289.893279 1466.47021,288.689022 L1445.90308,270.625164 C1444.2554,269.420907 1442.19974,269.420907 1440.55207,271.426302 C1431.91094,280.662342 1419.9797,287.484765 1400.64178,287.484765 C1381.7171,287.484765 1368.13818,278.651844 1362.78717,262.195364 C1361.96595,259.78685 1361.14473,257.378335 1360.7315,254.969821 C1359.49706,247.744277 1358.67584,240.921855 1358.67584,230.88978 C1359.08383,221.255723 1359.49706,215.234437 1360.7315,207.610876 L1360.7315,207.207756 L1360.7315,206.804636 C1361.14473,204.799242 1361.55272,203.191865 1361.96595,201.58959 C1366.49051,187.939641 1379.2482,179.912961 1395.29077,179.912961 C1411.33857,179.912961 1423.68304,187.939641 1428.2076,201.58959 C1429.44205,205.600379 1430.26327,210.014288 1430.26327,215.637557 C1430.26327,216.841814 1429.44205,217.642951 1428.2076,217.642951 L1382.12509,217.642951 L1380.06942,217.642951 Z" id="Fill-17"></path>
            <path d="M1295.46303,80 L1262.87023,80 C1260.80892,80 1259.15673,81.2031313 1259.15673,83.6093939 L1259.15673,164.611741 L1259.15673,231.579254 L1259.15673,231.981997 L1259.15673,232.38474 L1259.15673,241.607048 C1258.74237,251.227 1257.50453,257.6454 1255.85758,263.258314 C1251.31537,277.293147 1240.1801,284.914677 1224.08827,284.914677 C1207.99643,284.914677 1197.27027,277.293147 1192.7333,263.258314 C1190.25763,255.64188 1189.0198,247.219961 1189.0198,231.981997 C1189.0198,216.744032 1190.25763,208.322113 1192.7333,200.700583 C1197.27027,187.068493 1207.99643,179.446961 1223.26479,179.049316 L1237.29007,179.049316 C1239.35139,179.049316 1241.00358,177.846185 1241.00358,175.439922 L1241.00358,147.767902 C1241.00358,145.764382 1239.76574,144.158507 1237.29007,144.158507 L1235.63788,144.158507 L1214.59995,144.158507 L1214.1856,144.158507 L1213.77123,144.158507 L1213.36212,144.158507 C1184.89194,144.56125 1163.85401,157.795695 1155.18917,184.259487 C1151.06131,197.091188 1149,208.724857 1149,231.579254 C1149,254.036006 1150.6522,266.067319 1155.18917,278.899021 C1163.85401,305.765555 1185.3063,319 1214.1856,319 C1237.29007,319 1251.31537,310.57808 1259.57109,299.352254 L1259.9802,299.352254 L1259.9802,311.781212 C1259.9802,313.784732 1261.21804,315.390606 1263.6937,315.390606 L1296.2865,315.390606 C1298.35305,315.390606 1300,314.187475 1300,311.781212 L1300,83.2066508 C1299.17653,81.2031313 1297.52433,80 1295.46303,80" id="Fill-19"></path>
            <path d="M47.0553221,363.6 L40.3865546,363.6 C41.1878558,363.198269 40.3865546,361.998162 40.3865546,363.6 L40.3865546,74.0666667 L40.3865546,40.4 C40.3865546,42.0018377 41.1878558,40.8017307 40.3865546,40.4 L47.0553221,40.4 L753.944676,40.4 L760.613445,40.4 C759.80704,40.8017307 760.613445,42.0018377 760.613445,40.4 L760.613445,356.866667 C760.613445,361.601517 759.80704,362.801624 760.613445,363.6 L753.944676,363.6 L47.0553221,363.6 Z M801,0 C800.194578,1.21211813 800.194578,0.806366722 801,0 C800.194578,0.806366722 800.194578,0.806366722 801,0 C799.389155,0.405751408 798.578604,0 794.268908,0 L6.73109244,0 L0,0 C0.805422126,0.806366722 0,2.01848485 0,6.73333333 L0,404 C0,401.981515 0.400146025,402.787882 0,404 L794.268908,404 C798.578604,404 799.389155,403.599385 801,404 C800.599857,402.387266 801,401.575764 801,397.266667 L801,6.73333333 L801,0 Z" id="Fill-23"></path>
            <path d="M829,397.5 C829,402.389908 830.194275,404 835.833333,404 L945.166667,404 C950.405947,404 952,402.793709 952,397.5 L952,371.5 C952,366.610092 950.805725,365 945.166667,365 L835.833333,365 C829.993669,365 829,366.206291 829,371.5 L829,397.5 Z" id="Fill-21"></path>
        </g>
    </g>
</svg>