<?xml version="1.0" encoding="utf-8"?>
<!-- Generator: Adobe Illustrator 19.2.1, SVG Export Plug-In . SVG Version: 6.00 Build 0)  -->
<svg version="1.1" id="Layer_1" xmlns="http://www.w3.org/2000/svg" xmlns:xlink="http://www.w3.org/1999/xlink" x="0px" y="0px"
	 viewBox="0 0 190.4 194.2" style="enable-background:new 0 0 190.4 194.2;" xml:space="preserve">
<style type="text/css">
	.st0{opacity:0.3;fill:#363942;}
	.st1{fill:#FFFFFF;}
	.st2{fill:#FDE2D7;}
	.st3{fill:#363942;}
	.st4{fill:none;stroke:#FDE2D8;stroke-width:7;stroke-linecap:round;stroke-linejoin:round;stroke-miterlimit:10;}
	.st5{fill:#FEEE7D;}
	.st6{fill:#60C5BA;}
	.st7{fill:#EF5285;}
	.st8{fill:#A5DFF9;}
</style>
<g>
	<ellipse class="st0" cx="95.2" cy="180.3" rx="67.9" ry="3.4"/>
	<g>
		<circle class="st1" cx="95.9" cy="95.4" r="81.9"/>
		<path class="st2" d="M177.1,95.4c0,45.2-36.7,81.9-81.9,81.9s-81.9-36.7-81.9-81.9c0,23.8,36.7,63.8,81.9,63.8
			S177.1,120.2,177.1,95.4z"/>
		<path class="st3" d="M95.2,180.3c-46.8,0-84.9-38.1-84.9-84.9c0-46.8,38.1-84.9,84.9-84.9s84.9,38.1,84.9,84.9
			C180.1,142.2,142,180.3,95.2,180.3z M95.2,16.5c-43.5,0-78.9,35.4-78.9,78.9s35.4,78.9,78.9,78.9s78.9-35.4,78.9-78.9
			S138.7,16.5,95.2,16.5z"/>
	</g>
	<path class="st3" d="M94.6,147.4c-18.9,0-29.1-18.2-30.2-20.8c-1.4-3.3-0.6-7.2,2.2-9.5c2.7-2.4,6.7-2.7,9.8-0.7
		c0,0,7.2,4.3,15.7,4.3c9.6,0,21.7-4.9,21.9-5c3.1-1.3,6.7-0.5,9,1.8c2.3,2.4,3,6,1.7,9C123.6,129.2,113.6,147.4,94.6,147.4z"/>
	<path class="st3" d="M135.5,92.8c0.4,0.6,1.2,0.7,1.8,0.3c0.9-0.6,2.1-0.9,3.3-0.9s2.3,0.3,3.3,0.9c0.6,0.4,1.4,0.3,1.8-0.3
		c0.9-1.3,1.4-3,1-4.8c-0.5-2.3-2.4-4.2-4.7-4.7c-4-0.8-7.4,2.2-7.4,6C134.4,90.6,134.8,91.8,135.5,92.8z"/>
	<path class="st3" d="M43.2,92.8c0.4,0.6,1.2,0.7,1.8,0.3c0.9-0.6,2.1-0.9,3.3-0.9s2.3,0.3,3.3,0.9c0.6,0.4,1.4,0.3,1.8-0.3
		c0.9-1.3,1.4-3,1-4.8c-0.5-2.3-2.4-4.2-4.7-4.7c-4-0.8-7.4,2.2-7.4,6C42.1,90.6,42.5,91.8,43.2,92.8z"/>
	<path class="st4" d="M135.3,46.7c3.6,2.9,6.3,5.4,8.3,10.8"/>
	<path class="st4" d="M119.9,37.6c0,0,2.9,1.1,6.1,2.6"/>
	<path class="st3" d="M31.5,78c-0.4,0.9-0.1,2.1,0.8,2.6c1,0.6,2.2,0.3,2.8-0.7c2.7-4.4,6-6.9,9.9-7.4c2.8-0.4,4.9,0.5,4.9,0.5
		c1,0.4,2.2,0,2.6-1c0,0,0,0,0-0.1c0.4-1,0-2.2-1.1-2.7c-0.1,0-11.8-4.8-19.9,8.5C31.6,77.9,31.6,78,31.5,78z"/>
	<path class="st5" d="M39.5,158.7c-0.1,6.1-5.5,10.9-11.8,10.1c-5.9-0.7-10-6.6-9-12.5c0.8-4.7,4.4-9.1,9.8-17
		c0.4-0.6,1.3-0.6,1.7,0.1C35.6,148.6,39.7,153.2,39.5,158.7z"/>
	<path class="st6" d="M41,144.6c-0.6,6.1-6.4,10.4-12.5,9.2c-5.9-1.2-9.5-7.4-7.9-13.2c1.2-4.6,5.1-8.7,11.2-16.1
		c0.5-0.6,1.4-0.5,1.7,0.2C37.9,134.2,41.6,139.1,41,144.6z"/>
	<path class="st7" d="M42.9,131.8c-1.9,5.8-8.4,8.9-14.2,6.4c-5.5-2.4-7.7-9.2-5.1-14.5c2.1-4.3,6.8-7.5,14.2-13.5
		c0.6-0.5,1.4-0.2,1.6,0.6C42,121,44.6,126.5,42.9,131.8z"/>
	<path class="st8" d="M46.2,117.2c-1.9,5.8-8.4,8.9-14.2,6.4c-5.5-2.4-7.7-9.2-5.1-14.5c2.1-4.3,6.8-7.5,14.2-13.5
		c0.6-0.5,1.4-0.2,1.6,0.6C45.2,106.4,47.9,112,46.2,117.2z"/>
	<path class="st5" d="M149.4,158.7c0.1,6.1,5.5,10.9,11.8,10.1c5.9-0.7,10-6.6,9-12.5c-0.8-4.7-4.4-9.1-9.8-17
		c-0.4-0.6-1.3-0.6-1.7,0.1C153.3,148.6,149.2,153.2,149.4,158.7z"/>
	<path class="st6" d="M147.9,144.6c0.6,6.1,6.4,10.4,12.5,9.2c5.9-1.2,9.5-7.4,7.9-13.2c-1.2-4.6-5.1-8.7-11.2-16.1
		c-0.5-0.6-1.4-0.5-1.7,0.2C151,134.2,147.3,139.1,147.9,144.6z"/>
	<path class="st7" d="M146,131.8c1.9,5.8,8.4,8.9,14.2,6.4c5.5-2.4,7.7-9.2,5.1-14.5c-2.1-4.3-6.8-7.5-14.2-13.5
		c-0.6-0.5-1.4-0.2-1.6,0.6C146.9,121,144.3,126.5,146,131.8z"/>
	<path class="st8" d="M142.7,117.2c1.9,5.8,8.4,8.9,14.2,6.4c5.5-2.4,7.7-9.2,5.1-14.5c-2.1-4.3-6.8-7.5-14.2-13.5
		c-0.6-0.5-1.4-0.2-1.6,0.6C143.7,106.4,141,112,142.7,117.2z"/>
	<path class="st3" d="M157.2,78c0.4,0.9,0.1,2.1-0.8,2.6c-1,0.6-2.2,0.3-2.8-0.7c-2.7-4.4-6-6.9-9.9-7.4c-2.8-0.4-4.9,0.5-4.9,0.5
		c-1,0.4-2.2,0-2.6-1c0,0,0,0,0-0.1c-0.4-1,0-2.2,1.1-2.7c0.1,0,11.8-4.8,19.9,8.5C157.1,77.9,157.2,78,157.2,78z"/>
</g>
</svg>
