<?xml version="1.0" encoding="UTF-8"?>
<svg width="46px" height="26px" viewBox="0 0 46 26" version="1.1" xmlns="http://www.w3.org/2000/svg" xmlns:xlink="http://www.w3.org/1999/xlink">
    <!-- Generator: Sketch 54.1 (76490) - https://sketchapp.com -->
    <title>Group 2</title>
    <desc>Created with Sketch.</desc>
    <g id="Symbols" stroke="none" stroke-width="1" fill="none" fill-rule="evenodd">
        <g id="Header" transform="translate(-199.000000, -15.000000)" fill-rule="nonzero">
            <g id="Group-2" transform="translate(199.960000, 15.000000)">
                <g id="Logo" transform="translate(19.040000, 0.000000)">
                    <circle id="Oval" fill="#000000" cx="13" cy="13" r="13"></circle>
                    <path d="M13.7749683,12.6874682 C13.5756704,12.4119331 13.4339251,12.2081474 13.2962751,11.9943011 C12.9273156,11.4415268 12.819013,10.8397504 12.9282878,10.1690077 L12.9363085,10.1259459 C12.9755205,9.93906479 13.0359221,9.75797083 13.1163758,9.58310179 C13.1924743,9.41848757 13.2854746,9.26187123 13.3932038,9.11558768 C13.5316441,8.92754938 13.6938525,8.75708912 13.8856211,8.5996433 C14.5273642,8.09017582 15.2866489,7.9285732 16.1366109,8.02768813 C16.7049119,8.09395833 17.1801066,8.23687131 18,8.54120807 L17.4296137,10.2715565 C16.0735979,9.76821621 15.4038303,9.68871348 14.9262877,10.0628926 C14.8604048,10.1177785 14.8023348,10.1792104 14.7544369,10.2442683 C14.7193045,10.291974 14.6901257,10.3411121 14.668034,10.3888968 C14.6498017,10.4285261 14.6360902,10.4675606 14.6266983,10.505958 C14.5977583,10.70136 14.6193808,10.8060951 14.7187004,10.9540226 C14.8360175,11.1366123 14.9617262,11.3174584 15.1453402,11.5713099 C15.1263597,11.5450688 15.4049767,11.9285361 15.4817115,12.0359126 C15.8120122,12.4981091 16.0329617,12.8470588 16.2202123,13.2303965 C16.4626561,13.726725 16.6157126,14.230064 16.6737883,14.7835308 C16.6942511,15.0021476 16.6979724,15.2205344 16.6842253,15.438169 C16.655274,15.8945885 16.5495231,16.3423575 16.3650765,16.7744541 C16.2808385,16.9719516 16.1789187,17.1603155 16.0609719,17.3378881 C15.7247481,17.84445 15.2639315,18.2553405 14.7244094,18.5438965 C14.517295,18.6546296 14.3000138,18.7465588 14.0522826,18.8257285 C12.4000962,19.3027228 10.5561112,18.7823591 9.40574904,17.487518 L10.6627253,16.2300219 C11.3660589,17.0216903 12.5438463,17.3563042 13.5868761,17.0602755 C13.7122145,17.019295 13.8329119,16.9678513 13.9470106,16.9068488 C14.2396253,16.7503478 14.480539,16.5355354 14.6487961,16.2820356 C14.7047459,16.1978014 14.7523477,16.1098258 14.7913789,16.0183165 C14.8904456,15.7862364 14.9455308,15.5529954 14.9606073,15.3153132 C14.9677531,15.202186 14.9659309,15.0871527 14.9552467,14.9701427 C14.8938621,14.3968684 14.6609479,13.9212006 14.1052393,13.1435859 C14.0334246,13.0430941 13.7598994,12.6666351 13.7749683,12.6874682 Z M11.9327091,8.94172833 L11.9327091,13.4518507 L12.9895083,13.4518507 L12.9895083,15.2850061 L10.2052071,15.2850061 L10.2052071,8.94172833 L11.9327091,8.94172833 Z M9.33222355,13.0028753 C9.33222355,13.6863876 8.81023006,14.2404589 8.16615979,14.2404589 C7.52199349,14.2404589 7,13.6863876 7,13.0028753 C7,12.3195157 7.52199349,11.7655463 8.16615979,11.7655463 C8.81023006,11.7655463 9.33222355,12.3195157 9.33222355,13.0028753 Z" id="Combined-Shape" fill="#FFFFFF"></path>
                </g>
                <path d="M1.116,17 L2.68585154e-12,17 L2.68585154e-12,8.312 L1.116,8.312 L1.116,12.044 C1.26800076,11.7639986 1.50999834,11.5300009 1.842,11.342 C2.17400166,11.1539991 2.56799772,11.06 3.024,11.06 C3.8640042,11.06 4.51599768,11.3439972 4.98,11.912 C5.44400232,12.4800028 5.676,13.2039956 5.676,14.084 C5.676,14.9720044 5.4360024,15.7059971 4.956,16.286 C4.4759976,16.8660029 3.82000416,17.156 2.988,17.156 C2.12399568,17.156 1.50000192,16.8240033 1.116,16.16 L1.116,17 Z M4.056,15.584 C4.36800156,15.2079981 4.524,14.7080031 4.524,14.084 C4.524,13.4599969 4.37000154,12.9660018 4.062,12.602 C3.75399846,12.2379982 3.3400026,12.056 2.82,12.056 C2.31599748,12.056 1.9040016,12.2399982 1.584,12.608 C1.2639984,12.9760018 1.104,13.4679969 1.104,14.084 C1.104,14.7000031 1.2639984,15.1979981 1.584,15.578 C1.9040016,15.9580019 2.31599748,16.148 2.82,16.148 C3.33200256,16.148 3.74399844,15.9600019 4.056,15.584 Z M8.556,19.412 L7.32,19.412 L8.76,16.364 L6.276,11.228 L7.572,11.228 L9.372,15.212 L11.1,11.228 L12.312,11.228 L8.556,19.412 Z" id="by" fill="#9E9E9E"></path>
            </g>
        </g>
    </g>
</svg>