<?xml version="1.0" encoding="UTF-8" standalone="no"?>
<svg width="660px" height="660px" viewBox="0 0 660 660" version="1.1" xmlns="http://www.w3.org/2000/svg" xmlns:xlink="http://www.w3.org/1999/xlink" xmlns:sketch="http://www.bohemiancoding.com/sketch/ns">
    <g id="Page-1" stroke="none" stroke-width="1" fill="none" fill-rule="evenodd" sketch:type="MSPage">
        <rect id="Container" fill="#FF8100" sketch:type="MSShapeGroup" x="0" y="0" width="660" height="660" rx="70"></rect>
        <g id="Grid" sketch:type="MSLayerGroup" transform="translate(328.721392, 328.721392) rotate(-45.000000) translate(-328.721392, -328.721392) translate(130.221392, 130.221392)" stroke="#000000">
            <g id="Row-1" sketch:type="MSShapeGroup">
                <rect id="Rectangle-3" fill="#000000" x="0" y="0" width="100" height="100"></rect>
                <rect id="Rectangle-3-Copy" fill="#000000" x="99" y="0" width="100" height="100"></rect>
                <rect id="Rectangle-3-Copy-2" stroke-width="2" fill="#FFFFFF" x="198" y="0" width="100" height="100"></rect>
                <rect id="Rectangle-3-Copy-3" stroke-width="2" fill="#FFFFFF" x="297" y="0" width="100" height="100"></rect>
            </g>
            <g id="Row-2" transform="translate(-0.000000, 99.000000)" sketch:type="MSShapeGroup">
                <rect id="Rectangle-3-Copy-4" fill="#000000" x="0" y="0" width="100" height="100"></rect>
                <rect id="Rectangle-3-Copy-5" stroke-width="2" fill="#FFFFFF" x="99" y="0" width="100" height="100"></rect>
                <rect id="Rectangle-3-Copy-6" fill="#000000" x="198" y="0" width="100" height="100"></rect>
                <rect id="Rectangle-3-Copy-7" stroke-width="2" fill="#FFFFFF" x="297" y="0" width="100" height="100"></rect>
            </g>
            <g id="Row-3" transform="translate(-0.000000, 198.000000)" sketch:type="MSShapeGroup">
                <rect id="Rectangle-3-Copy-8" fill="#000000" x="0" y="0" width="100" height="100"></rect>
                <rect id="Rectangle-3-Copy-9" fill="#000000" x="99" y="0" width="100" height="100"></rect>
                <rect id="Rectangle-3-Copy-10" stroke-width="2" fill="#FFFFFF" x="198" y="0" width="100" height="100"></rect>
                <rect id="Rectangle-3-Copy-11" stroke-width="2" fill="#FFFFFF" x="297" y="0" width="100" height="100"></rect>
            </g>
            <g id="Row-4" transform="translate(-0.000000, 297.000000)" sketch:type="MSShapeGroup">
                <rect id="Rectangle-3-Copy-8" fill="#000000" x="0" y="0" width="100" height="100"></rect>
                <rect id="Rectangle-3-Copy-9" stroke-width="2" fill="#FFFFFF" x="99" y="0" width="100" height="100"></rect>
                <rect id="Rectangle-3-Copy-10" fill="#000000" x="198" y="0" width="100" height="100"></rect>
                <rect id="Rectangle-3-Copy-11" stroke-width="2" fill="#FFFFFF" x="297" y="0" width="100" height="100"></rect>
            </g>
        </g>
        <rect id="Frame" stroke="#000000" stroke-width="18" sketch:type="MSShapeGroup" transform="translate(328.842712, 328.842712) rotate(-45.000000) translate(-328.842712, -328.842712) " x="128.842712" y="128.842712" width="400" height="400" rx="10"></rect>
    </g>
</svg>